<?xml version="1.0" standalone="no"?>
<!DOCTYPE svg PUBLIC "-//W3C//DTD SVG 1.0//EN" "http://www.w3.org/TR/2001/REC-SVG-20010904/DTD/svg10.dtd">
<svg height="1152" style="fill-rule:evenodd;clip-rule:evenodd;stroke-linejoin:round;stroke-miterlimit:2;" version="1.1" viewBox="0 0 1152 1152" width="1152" xml:space="preserve" xmlns="http://www.w3.org/2000/svg" xmlns:serif="http://www.serif.com/" xmlns:xlink="http://www.w3.org/1999/xlink" xmlns:inkscape ="http://www.inkscape.org/namespaces/inkscape" >
<desc>CopyRight:SVG Design Editor;
configurationStart;Unit=smInches;Dpi=96;Division=4;Grid=True;Zoom=1;CanvasW=1152;CanvasH=1152;configurationEnd;</desc>
<g isVisble = "True" inkscape:label = "linkedin_logo_icon Default Layer" inkscape:groupmode = "layer" ><path style="fill:#FFFFFF;stroke:none; stroke-width:1" d="m449.45,0c34.52,0 62.55,28.03 62.55,62.55l0,386.89c0,34.52 -28.03,62.55 -62.55,62.55l-386.89,0c-34.52,0 -62.55,-28.03 -62.55,-62.55l0,-386.89c0,-34.52 28.03,-62.55 62.55,-62.55l386.89,0l0,0zm-288.98,423.28l0,-225.72l-75.04,0l0,225.72l75.04,0zm270.54,0l0,-129.44c0,-69.33 -37.02,-101.59 -86.38,-101.59c-39.8,0 -57.63,21.89 -67.62,37.27l0,-31.96l-75.02,0c0.99,21.18 0,225.72 0,225.72l75.02,0l0,-126.06c0,-6.75 0.49,-13.49 2.47,-18.32c5.41,-13.48 17.77,-27.43 38.49,-27.43c27.14,0 38.01,20.71 38.01,51.04l0,120.77l75.02,0l0,0zm-307.55,-334.56c-25.67,0 -42.45,16.88 -42.45,39c0,21.66 16.26,39 41.46,39l0.48,0c26.16,0 42.45,-17.34 42.45,-39c-0.49,-22.09 -16.24,-38.95 -41.94,-39l0,0z" transform = "matrix(2.25,0,0,2.25,1.907349E-05,1.907349E-05)" vector-effect="non-scaling-stroke" pen = "2.25,2.25" />
</g>
</svg>
