<?xml version="1.0" standalone="no"?>
<!DOCTYPE svg PUBLIC "-//W3C//DTD SVG 1.0//EN" "http://www.w3.org/TR/2001/REC-SVG-20010904/DTD/svg10.dtd">
<svg height="1152" style="fill-rule:evenodd;clip-rule:evenodd;stroke-linejoin:round;stroke-miterlimit:2;" version="1.1" viewBox="0 0 1152 1152" width="1152" xml:space="preserve" xmlns="http://www.w3.org/2000/svg" xmlns:serif="http://www.serif.com/" xmlns:xlink="http://www.w3.org/1999/xlink" xmlns:inkscape ="http://www.inkscape.org/namespaces/inkscape" >
<desc>CopyRight:SVG Design Editor;
configurationStart;Unit=smInches;Dpi=96;Division=4;Grid=True;Zoom=1;CanvasW=1152;CanvasH=1152;configurationEnd;</desc>
<g isVisble = "True" inkscape:label = "twitter_icon Default Layer" inkscape:groupmode = "layer" ><path style="fill:#FFFFFF;stroke:none; stroke-width:1" d="m256,0c141.29,0 256,114.71 256,256c0,141.29 -114.71,256 -256,256c-141.29,0 -256,-114.71 -256,-256c0,-141.29 114.71,-256 256,-256zm-45.09,392.16c113.28,0 175.22,-93.87 175.22,-175.22c0,-2.68 0,-5.36 -0.13,-7.92c12,-8.68 22.48,-19.54 30.78,-31.93c-10.98,4.85 -22.86,8.17 -35.38,9.71c12.77,-7.66 22.48,-19.67 27.08,-34.1c-11.88,7.02 -25.03,12.13 -39.08,14.94c-11.24,-12 -27.2,-19.41 -44.96,-19.41c-33.97,0 -61.56,27.59 -61.56,61.56c0,4.85 0.51,9.58 1.66,14.05c-51.21,-2.55 -96.55,-27.08 -126.95,-64.37c-5.24,9.07 -8.3,19.67 -8.3,30.91c0,21.33 10.86,40.23 27.46,51.21c-10.09,-0.26 -19.54,-3.07 -27.84,-7.66l0,0.77c0,29.89 21.2,54.66 49.42,60.41c-5.11,1.4 -10.6,2.17 -16.22,2.17c-3.96,0 -7.79,-0.38 -11.62,-1.15c7.79,24.52 30.52,42.27 57.47,42.78c-21.07,16.48 -47.64,26.31 -76.5,26.31c-4.98,0 -9.83,-0.26 -14.69,-0.89c26.95,17.62 59.39,27.84 94.12,27.84l0,0z" transform = "matrix(2.25,0,0,2.25,0,0)" vector-effect="non-scaling-stroke" pen = "2.25,2.25" />
</g>
</svg>
